<svg width="181" height="27" viewBox="0 0 181 27" fill="none" xmlns="http://www.w3.org/2000/svg">
<path d="M5.92 17.848C5.92 18.104 6.18667 18.2747 6.72 18.36C6.99733 18.4027 7.47733 18.4347 8.16 18.456C8.864 18.4773 9.77067 18.488 10.88 18.488C13.824 18.488 15.936 18.616 17.216 18.872C19.6053 19.3413 20.8 20.3013 20.8 21.752C20.8 23.5013 19.648 24.856 17.344 25.816C15.5093 26.6053 13.3547 27 10.88 27H3.424C2.72 27 2.13333 26.872 1.664 26.616C1.19467 26.36 0.96 26.0507 0.96 25.688C0.96 25.3253 1.19467 25.016 1.664 24.76C2.13333 24.504 2.72 24.376 3.424 24.376H10.848C12 24.376 12.9813 24.248 13.792 23.992C15.1573 23.544 15.84 22.7973 15.84 21.752C15.84 21.5387 15.5627 21.3787 15.008 21.272C14.7093 21.2293 14.2187 21.1973 13.536 21.176C12.8533 21.1333 11.968 21.112 10.88 21.112C7.936 21.112 5.824 20.984 4.544 20.728C2.15467 20.2587 0.96 19.2987 0.96 17.848C0.96 16.12 2.112 14.776 4.416 13.816C6.25067 13.0267 8.40533 12.632 10.88 12.632H18.336C19.0187 12.632 19.5947 12.76 20.064 13.016C20.5547 13.2507 20.8 13.5493 20.8 13.912C20.8 14.2747 20.5653 14.584 20.096 14.84C19.6267 15.096 19.04 15.224 18.336 15.224H10.912C9.73867 15.224 8.75733 15.352 7.968 15.608C6.60267 16.056 5.92 16.8027 5.92 17.848ZM42.55 13.912V21.752C42.55 23.032 41.814 24.1627 40.342 25.144C38.5287 26.3813 35.958 27 32.63 27C29.3233 27 26.7633 26.392 24.95 25.176C23.4567 24.1947 22.71 23.0533 22.71 21.752V13.912C22.71 13.5707 22.9553 13.272 23.446 13.016C23.9367 12.76 24.5233 12.632 25.206 12.632C25.8887 12.632 26.4647 12.76 26.934 13.016C27.4247 13.2507 27.67 13.5493 27.67 13.912V21.752C27.67 22.328 27.926 22.84 28.438 23.288C29.2273 24.0133 30.6247 24.376 32.63 24.376C34.6353 24.376 36.0327 24.0133 36.822 23.288C37.334 22.84 37.59 22.328 37.59 21.752V13.912C37.59 13.5707 37.8353 13.272 38.326 13.016C38.8167 12.76 39.4033 12.632 40.086 12.632C40.79 12.632 41.3767 12.7493 41.846 12.984C42.3153 13.2187 42.55 13.528 42.55 13.912ZM49.42 17.848C49.42 18.104 49.6867 18.2747 50.22 18.36C50.4973 18.4027 50.9773 18.4347 51.66 18.456C52.364 18.4773 53.2707 18.488 54.38 18.488C57.324 18.488 59.436 18.616 60.716 18.872C63.1053 19.3413 64.3 20.3013 64.3 21.752C64.3 23.5013 63.148 24.856 60.844 25.816C59.0093 26.6053 56.8547 27 54.38 27H46.924C46.22 27 45.6333 26.872 45.164 26.616C44.6947 26.36 44.46 26.0507 44.46 25.688C44.46 25.3253 44.6947 25.016 45.164 24.76C45.6333 24.504 46.22 24.376 46.924 24.376H54.348C55.5 24.376 56.4813 24.248 57.292 23.992C58.6573 23.544 59.34 22.7973 59.34 21.752C59.34 21.5387 59.0627 21.3787 58.508 21.272C58.2093 21.2293 57.7187 21.1973 57.036 21.176C56.3533 21.1333 55.468 21.112 54.38 21.112C51.436 21.112 49.324 20.984 48.044 20.728C45.6547 20.2587 44.46 19.2987 44.46 17.848C44.46 16.12 45.612 14.776 47.916 13.816C49.7507 13.0267 51.9053 12.632 54.38 12.632H61.836C62.5187 12.632 63.0947 12.76 63.564 13.016C64.0547 13.2507 64.3 13.5493 64.3 13.912C64.3 14.2747 64.0653 14.584 63.596 14.84C63.1267 15.096 62.54 15.224 61.836 15.224H54.412C53.2387 15.224 52.2573 15.352 51.468 15.608C50.1027 16.056 49.42 16.8027 49.42 17.848ZM86.05 17.848V25.688C86.05 26.0507 85.8153 26.36 85.346 26.616C84.8767 26.872 84.29 27 83.586 27C82.9033 27 82.3167 26.872 81.826 26.616C81.3353 26.36 81.09 26.0507 81.09 25.688V17.848C81.09 17.272 80.834 16.76 80.322 16.312C79.5327 15.5867 78.1353 15.224 76.13 15.224C74.1247 15.224 72.7273 15.5867 71.938 16.312C71.426 16.76 71.17 17.272 71.17 17.848V25.688C71.17 26.0507 70.9247 26.36 70.434 26.616C69.9433 26.872 69.3567 27 68.674 27C67.9913 27 67.4047 26.872 66.914 26.616C66.4447 26.36 66.21 26.0507 66.21 25.688V2.168C66.21 1.80533 66.4447 1.496 66.914 1.24C67.3833 0.983999 67.97 0.855999 68.674 0.855999C69.3567 0.855999 69.9433 0.983999 70.434 1.24C70.9247 1.496 71.17 1.80533 71.17 2.168V13.24C72.5353 12.8347 74.1887 12.632 76.13 12.632C79.4153 12.632 81.9753 13.2293 83.81 14.424C85.3033 15.4053 86.05 16.5467 86.05 17.848ZM92.952 13.912V25.688C92.952 26.0507 92.7067 26.36 92.216 26.616C91.7253 26.872 91.1387 27 90.456 27C89.7733 27 89.1867 26.872 88.696 26.616C88.2053 26.36 87.96 26.0507 87.96 25.688V13.912C87.96 13.5707 88.2053 13.272 88.696 13.016C89.1867 12.76 89.7733 12.632 90.456 12.632C91.16 12.632 91.7467 12.76 92.216 13.016C92.7067 13.2507 92.952 13.5493 92.952 13.912ZM92.952 10.008C92.952 10.3707 92.7067 10.68 92.216 10.936C91.7253 11.192 91.1387 11.32 90.456 11.32C89.7733 11.32 89.1867 11.192 88.696 10.936C88.2053 10.68 87.96 10.3707 87.96 10.008C87.96 9.64533 88.2053 9.336 88.696 9.08C89.1867 8.824 89.7733 8.696 90.456 8.696C91.1387 8.696 91.7253 8.824 92.216 9.08C92.7067 9.336 92.952 9.64533 92.952 10.008Z" fill="white"/>
<path d="M114.706 13.912C114.706 14.2747 114.472 14.584 114.002 14.84C113.533 15.096 112.946 15.224 112.242 15.224H107.282V25.688C107.282 26.0507 107.037 26.36 106.546 26.616C106.056 26.872 105.469 27 104.786 27C104.082 27 103.496 26.872 103.026 26.616C102.557 26.36 102.322 26.0507 102.322 25.688V15.224H97.3623C96.6796 15.224 96.0929 15.096 95.6023 14.84C95.1116 14.584 94.8663 14.2747 94.8663 13.912C94.8663 13.5707 95.1116 13.272 95.6023 13.016C96.0929 12.76 96.6796 12.632 97.3623 12.632H102.322V10.008C102.322 9.64533 102.557 9.336 103.026 9.08C103.496 8.824 104.082 8.696 104.786 8.696C105.469 8.696 106.056 8.824 106.546 9.08C107.037 9.336 107.282 9.64533 107.282 10.008V12.632H112.242C112.946 12.632 113.533 12.7493 114.002 12.984C114.472 13.2187 114.706 13.528 114.706 13.912ZM121.608 13.912V25.688C121.608 26.0507 121.363 26.36 120.872 26.616C120.382 26.872 119.795 27 119.112 27C118.43 27 117.843 26.872 117.352 26.616C116.862 26.36 116.616 26.0507 116.616 25.688V13.912C116.616 13.5707 116.862 13.272 117.352 13.016C117.843 12.76 118.43 12.632 119.112 12.632C119.816 12.632 120.403 12.76 120.872 13.016C121.363 13.2507 121.608 13.5493 121.608 13.912ZM121.608 10.008C121.608 10.3707 121.363 10.68 120.872 10.936C120.382 11.192 119.795 11.32 119.112 11.32C118.43 11.32 117.843 11.192 117.352 10.936C116.862 10.68 116.616 10.3707 116.616 10.008C116.616 9.64533 116.862 9.336 117.352 9.08C117.843 8.824 118.43 8.696 119.112 8.696C119.795 8.696 120.382 8.824 120.872 9.08C121.363 9.336 121.608 9.64533 121.608 10.008ZM158.275 17.848V25.688C158.275 26.0507 158.029 26.36 157.539 26.616C157.048 26.872 156.461 27 155.779 27C155.075 27 154.488 26.872 154.019 26.616C153.549 26.36 153.315 26.0507 153.315 25.688V17.848C153.315 17.272 153.059 16.76 152.547 16.312C151.693 15.5867 150.285 15.224 148.323 15.224C146.403 15.224 145.016 15.5867 144.163 16.312C143.629 16.76 143.363 17.272 143.363 17.848V25.688C143.363 26.0507 143.128 26.36 142.659 26.616C142.189 26.872 141.603 27 140.899 27C140.216 27 139.629 26.872 139.139 26.616C138.648 26.36 138.403 26.0507 138.403 25.688V17.848C138.403 17.272 138.147 16.76 137.635 16.312C136.845 15.5867 135.448 15.224 133.443 15.224C131.523 15.224 130.136 15.5867 129.283 16.312C128.749 16.76 128.483 17.272 128.483 17.848V25.688C128.483 26.0507 128.248 26.36 127.779 26.616C127.309 26.872 126.723 27 126.019 27C125.336 27 124.749 26.872 124.259 26.616C123.768 26.36 123.523 26.0507 123.523 25.688V17.848C123.523 16.5893 124.259 15.4587 125.731 14.456C127.544 13.24 130.115 12.632 133.443 12.632C135.128 12.632 136.568 12.7707 137.763 13.048C138.957 13.3253 140.003 13.7413 140.899 14.296C141.731 13.784 142.755 13.3787 143.971 13.08C145.208 12.7813 146.659 12.632 148.323 12.632C151.629 12.632 154.2 13.2293 156.035 14.424C157.528 15.4053 158.275 16.5467 158.275 17.848ZM180.05 17.848C180.05 19.128 179.314 20.2587 177.842 21.24C176.007 22.456 173.437 23.064 170.13 23.064C169.447 23.064 168.861 22.936 168.37 22.68C167.879 22.424 167.634 22.1147 167.634 21.752C167.634 21.3893 167.879 21.08 168.37 20.824C168.861 20.568 169.447 20.44 170.13 20.44C172.093 20.44 173.49 20.088 174.322 19.384C174.834 18.9787 175.09 18.4667 175.09 17.848C175.09 17.272 174.834 16.76 174.322 16.312C173.533 15.5867 172.135 15.224 170.13 15.224C168.125 15.224 166.727 15.5867 165.938 16.312C165.426 16.76 165.17 17.272 165.17 17.848V21.752C165.17 22.776 165.853 23.512 167.218 23.96C168.029 24.2373 169.01 24.376 170.162 24.376C170.823 24.376 171.389 24.504 171.858 24.76C172.349 25.016 172.594 25.3253 172.594 25.688C172.594 26.0507 172.359 26.36 171.89 26.616C171.421 26.872 170.834 27 170.13 27C167.655 27 165.501 26.6053 163.666 25.816C161.362 24.856 160.21 23.5013 160.21 21.752V17.848C160.21 16.5893 160.946 15.4587 162.418 14.456C164.231 13.24 166.802 12.632 170.13 12.632C173.415 12.632 175.975 13.2293 177.81 14.424C179.303 15.4053 180.05 16.5467 180.05 17.848Z" fill="#B71C1C"/>
</svg>
