<svg width="270" height="40" viewBox="0 0 270 40" fill="none" xmlns="http://www.w3.org/2000/svg">
<path d="M7.88 26.272C7.88 26.656 8.28 26.912 9.08 27.04C9.496 27.104 10.216 27.152 11.24 27.184C12.296 27.216 13.656 27.232 15.32 27.232C19.736 27.232 22.904 27.424 24.824 27.808C28.408 28.512 30.2 29.952 30.2 32.128C30.2 34.752 28.472 36.784 25.016 38.224C22.264 39.408 19.032 40 15.32 40H4.136C3.08 40 2.2 39.808 1.496 39.424C0.792 39.04 0.44 38.576 0.44 38.032C0.44 37.488 0.792 37.024 1.496 36.64C2.2 36.256 3.08 36.064 4.136 36.064H15.272C17 36.064 18.472 35.872 19.688 35.488C21.736 34.816 22.76 33.696 22.76 32.128C22.76 31.808 22.344 31.568 21.512 31.408C21.064 31.344 20.328 31.296 19.304 31.264C18.28 31.2 16.952 31.168 15.32 31.168C10.904 31.168 7.736 30.976 5.816 30.592C2.232 29.888 0.44 28.448 0.44 26.272C0.44 23.68 2.168 21.664 5.624 20.224C8.376 19.04 11.608 18.448 15.32 18.448H26.504C27.528 18.448 28.392 18.64 29.096 19.024C29.832 19.376 30.2 19.824 30.2 20.368C30.2 20.912 29.848 21.376 29.144 21.76C28.44 22.144 27.56 22.336 26.504 22.336H15.368C13.608 22.336 12.136 22.528 10.952 22.912C8.904 23.584 7.88 24.704 7.88 26.272ZM62.825 20.368V32.128C62.825 34.048 61.721 35.744 59.513 37.216C56.793 39.072 52.937 40 47.945 40C42.985 40 39.145 39.088 36.425 37.264C34.185 35.792 33.065 34.08 33.065 32.128V20.368C33.065 19.856 33.433 19.408 34.169 19.024C34.905 18.64 35.785 18.448 36.809 18.448C37.833 18.448 38.697 18.64 39.401 19.024C40.137 19.376 40.505 19.824 40.505 20.368V32.128C40.505 32.992 40.889 33.76 41.657 34.432C42.841 35.52 44.937 36.064 47.945 36.064C50.953 36.064 53.049 35.52 54.233 34.432C55.001 33.76 55.385 32.992 55.385 32.128V20.368C55.385 19.856 55.753 19.408 56.489 19.024C57.225 18.64 58.105 18.448 59.129 18.448C60.185 18.448 61.065 18.624 61.769 18.976C62.473 19.328 62.825 19.792 62.825 20.368ZM73.13 26.272C73.13 26.656 73.53 26.912 74.33 27.04C74.746 27.104 75.466 27.152 76.49 27.184C77.546 27.216 78.906 27.232 80.57 27.232C84.986 27.232 88.154 27.424 90.074 27.808C93.658 28.512 95.45 29.952 95.45 32.128C95.45 34.752 93.722 36.784 90.266 38.224C87.514 39.408 84.282 40 80.57 40H69.386C68.33 40 67.45 39.808 66.746 39.424C66.042 39.04 65.69 38.576 65.69 38.032C65.69 37.488 66.042 37.024 66.746 36.64C67.45 36.256 68.33 36.064 69.386 36.064H80.522C82.25 36.064 83.722 35.872 84.938 35.488C86.986 34.816 88.01 33.696 88.01 32.128C88.01 31.808 87.594 31.568 86.762 31.408C86.314 31.344 85.578 31.296 84.554 31.264C83.53 31.2 82.202 31.168 80.57 31.168C76.154 31.168 72.986 30.976 71.066 30.592C67.482 29.888 65.69 28.448 65.69 26.272C65.69 23.68 67.418 21.664 70.874 20.224C73.626 19.04 76.858 18.448 80.57 18.448H91.754C92.778 18.448 93.642 18.64 94.346 19.024C95.082 19.376 95.45 19.824 95.45 20.368C95.45 20.912 95.098 21.376 94.394 21.76C93.69 22.144 92.81 22.336 91.754 22.336H80.618C78.858 22.336 77.386 22.528 76.202 22.912C74.154 23.584 73.13 24.704 73.13 26.272ZM128.075 26.272V38.032C128.075 38.576 127.723 39.04 127.019 39.424C126.315 39.808 125.435 40 124.379 40C123.355 40 122.475 39.808 121.739 39.424C121.003 39.04 120.635 38.576 120.635 38.032V26.272C120.635 25.408 120.251 24.64 119.483 23.968C118.299 22.88 116.203 22.336 113.195 22.336C110.187 22.336 108.091 22.88 106.907 23.968C106.139 24.64 105.755 25.408 105.755 26.272V38.032C105.755 38.576 105.387 39.04 104.651 39.424C103.915 39.808 103.035 40 102.011 40C100.987 40 100.107 39.808 99.371 39.424C98.667 39.04 98.315 38.576 98.315 38.032V2.752C98.315 2.208 98.667 1.744 99.371 1.36C100.075 0.975998 100.955 0.783998 102.011 0.783998C103.035 0.783998 103.915 0.975998 104.651 1.36C105.387 1.744 105.755 2.208 105.755 2.752V19.36C107.803 18.752 110.283 18.448 113.195 18.448C118.123 18.448 121.963 19.344 124.715 21.136C126.955 22.608 128.075 24.32 128.075 26.272ZM138.428 20.368V38.032C138.428 38.576 138.06 39.04 137.324 39.424C136.588 39.808 135.708 40 134.684 40C133.66 40 132.78 39.808 132.044 39.424C131.308 39.04 130.94 38.576 130.94 38.032V20.368C130.94 19.856 131.308 19.408 132.044 19.024C132.78 18.64 133.66 18.448 134.684 18.448C135.74 18.448 136.62 18.64 137.324 19.024C138.06 19.376 138.428 19.824 138.428 20.368ZM138.428 14.512C138.428 15.056 138.06 15.52 137.324 15.904C136.588 16.288 135.708 16.48 134.684 16.48C133.66 16.48 132.78 16.288 132.044 15.904C131.308 15.52 130.94 15.056 130.94 14.512C130.94 13.968 131.308 13.504 132.044 13.12C132.78 12.736 133.66 12.544 134.684 12.544C135.708 12.544 136.588 12.736 137.324 13.12C138.06 13.504 138.428 13.968 138.428 14.512Z" fill="#222222"/>
<path d="M171.059 20.368C171.059 20.912 170.707 21.376 170.003 21.76C169.299 22.144 168.419 22.336 167.363 22.336H159.923V38.032C159.923 38.576 159.555 39.04 158.819 39.424C158.083 39.808 157.203 40 156.179 40C155.123 40 154.243 39.808 153.539 39.424C152.835 39.04 152.483 38.576 152.483 38.032V22.336H145.043C144.019 22.336 143.139 22.144 142.403 21.76C141.667 21.376 141.299 20.912 141.299 20.368C141.299 19.856 141.667 19.408 142.403 19.024C143.139 18.64 144.019 18.448 145.043 18.448H152.483V14.512C152.483 13.968 152.835 13.504 153.539 13.12C154.243 12.736 155.123 12.544 156.179 12.544C157.203 12.544 158.083 12.736 158.819 13.12C159.555 13.504 159.923 13.968 159.923 14.512V18.448H167.363C168.419 18.448 169.299 18.624 170.003 18.976C170.707 19.328 171.059 19.792 171.059 20.368ZM181.412 20.368V38.032C181.412 38.576 181.044 39.04 180.308 39.424C179.572 39.808 178.692 40 177.668 40C176.644 40 175.764 39.808 175.028 39.424C174.292 39.04 173.924 38.576 173.924 38.032V20.368C173.924 19.856 174.292 19.408 175.028 19.024C175.764 18.64 176.644 18.448 177.668 18.448C178.724 18.448 179.604 18.64 180.308 19.024C181.044 19.376 181.412 19.824 181.412 20.368ZM181.412 14.512C181.412 15.056 181.044 15.52 180.308 15.904C179.572 16.288 178.692 16.48 177.668 16.48C176.644 16.48 175.764 16.288 175.028 15.904C174.292 15.52 173.924 15.056 173.924 14.512C173.924 13.968 174.292 13.504 175.028 13.12C175.764 12.736 176.644 12.544 177.668 12.544C178.692 12.544 179.572 12.736 180.308 13.12C181.044 13.504 181.412 13.968 181.412 14.512ZM236.412 26.272V38.032C236.412 38.576 236.044 39.04 235.308 39.424C234.572 39.808 233.692 40 232.668 40C231.612 40 230.732 39.808 230.028 39.424C229.324 39.04 228.972 38.576 228.972 38.032V26.272C228.972 25.408 228.588 24.64 227.82 23.968C226.54 22.88 224.428 22.336 221.484 22.336C218.604 22.336 216.524 22.88 215.244 23.968C214.444 24.64 214.044 25.408 214.044 26.272V38.032C214.044 38.576 213.692 39.04 212.988 39.424C212.284 39.808 211.404 40 210.348 40C209.324 40 208.444 39.808 207.708 39.424C206.972 39.04 206.604 38.576 206.604 38.032V26.272C206.604 25.408 206.22 24.64 205.452 23.968C204.268 22.88 202.172 22.336 199.164 22.336C196.284 22.336 194.204 22.88 192.924 23.968C192.124 24.64 191.724 25.408 191.724 26.272V38.032C191.724 38.576 191.372 39.04 190.668 39.424C189.964 39.808 189.084 40 188.028 40C187.004 40 186.124 39.808 185.388 39.424C184.652 39.04 184.284 38.576 184.284 38.032V26.272C184.284 24.384 185.388 22.688 187.596 21.184C190.316 19.36 194.172 18.448 199.164 18.448C201.692 18.448 203.852 18.656 205.644 19.072C207.436 19.488 209.004 20.112 210.348 20.944C211.596 20.176 213.132 19.568 214.956 19.12C216.812 18.672 218.988 18.448 221.484 18.448C226.444 18.448 230.3 19.344 233.052 21.136C235.292 22.608 236.412 24.32 236.412 26.272ZM269.075 26.272C269.075 28.192 267.971 29.888 265.763 31.36C263.011 33.184 259.155 34.096 254.195 34.096C253.171 34.096 252.291 33.904 251.555 33.52C250.819 33.136 250.451 32.672 250.451 32.128C250.451 31.584 250.819 31.12 251.555 30.736C252.291 30.352 253.171 30.16 254.195 30.16C257.139 30.16 259.235 29.632 260.483 28.576C261.251 27.968 261.635 27.2 261.635 26.272C261.635 25.408 261.251 24.64 260.483 23.968C259.299 22.88 257.203 22.336 254.195 22.336C251.187 22.336 249.091 22.88 247.907 23.968C247.139 24.64 246.755 25.408 246.755 26.272V32.128C246.755 33.664 247.779 34.768 249.827 35.44C251.043 35.856 252.515 36.064 254.243 36.064C255.235 36.064 256.083 36.256 256.787 36.64C257.523 37.024 257.891 37.488 257.891 38.032C257.891 38.576 257.539 39.04 256.835 39.424C256.131 39.808 255.251 40 254.195 40C250.483 40 247.251 39.408 244.499 38.224C241.043 36.784 239.315 34.752 239.315 32.128V26.272C239.315 24.384 240.419 22.688 242.627 21.184C245.347 19.36 249.203 18.448 254.195 18.448C259.123 18.448 262.963 19.344 265.715 21.136C267.955 22.608 269.075 24.32 269.075 26.272Z" fill="#B71C1C"/>
</svg>
